<?xml version="1.0" encoding="UTF-8"?><svg id="Layer_2" xmlns="http://www.w3.org/2000/svg" viewBox="0 0 210.47 255.81"><defs><style>.cls-1{fill:#606c38;}</style></defs><g id="Layer_5"><path class="cls-1" d="M104.43,15.42c.65-1.55,2.99-10.52,2.98-12.19-.02-2.19-1.29-3.29-4.21-3.23-14.97.32-28.8,3.73-41.41,10.47-18.28,9.77-30.69,23.7-39.97,39.79-8.76,15.19-12.98,26.49-17.03,43.28C.41,111.71-1.7,133.09,1.64,154.05c4.45,28.01,17.11,54.52,39.75,76.35,13.15,12.68,29.38,21.21,49.45,24.23,3.44.52,5.59-.46,6.53-2.85,1.75-4.43,3.54-8.93,4.38-13.52,2.43-13.22,4.5-26.47,3.95-39.91-.34-8.35.38-16.06-3.11-25.49-2.3-6.23-6.69-13.81-6.69-13.81-6.67-12.15-15.94-19.2-28.09-25.88l-29.27-16.06c-1-.55-.83-2.02.25-2.34l3.05-.9c20.44-6,41.57-19.13,45.76-39.64"/><path class="cls-1" d="M106.04,240.39c-.65,1.55-2.99,10.52-2.98,12.19.02,2.19,1.29,3.29,4.21,3.23,14.97-.32,28.8-3.73,41.41-10.47,18.28-9.77,30.69-23.7,39.97-39.79,8.76-15.19,12.98-26.49,17.03-43.28,4.38-18.18,6.49-39.55,3.16-60.51-4.45-28.01-17.11-54.52-39.75-76.35-13.15-12.68-29.38-21.21-49.45-24.23-3.44-.52-5.59.46-6.53,2.85-1.75,4.43-3.54,8.93-4.38,13.52-2.43,13.22-4.5,26.47-3.95,39.91.34,8.35-.38,16.06,3.11,25.49,2.3,6.23,6.69,13.81,6.69,13.81,6.67,12.15,15.94,19.2,28.09,25.88l29.27,16.06c1,.55.83,2.02-.25,2.34l-3.05.9c-20.44,6-41.57,19.13-45.76,39.64"/></g></svg>