<?xml version="1.0" encoding="UTF-8"?><svg id="Layer_2" xmlns="http://www.w3.org/2000/svg" viewBox="0 0 200.25 620.14"><defs><style>.cls-1{fill:#ccd5ae;}</style></defs><g id="map"><path class="cls-1" d="M27.27,3.78c3.63-.97,17.91-7.02,20.09-1.45s.73,18.15-1.21,25.41-2.42,25.41,1.21,35.57,3.24,10.22,5.85,14.85,10,11.88,11.88,13.91,2.32,4.78,3.77,6.09,14.78,19.94,17.83,20.75,12.98,8.32,14.81,15.41c3.4,6.49,25.16,19.26,33.34,22.69s22.25,14.5,22.25,32.35-1.03,34.19-1.94,39.21-2.28,12.78-3.65,15.29-.03,9.72,2.64,12.99,17.94,11.39,17.23,19.17-4.95,26.32-7.6,31.97-4.76,21.01-4.54,29.28-4.4,31.37-7.04,47.88-5.72,31.25-4.18,38.29-.22,7.48,3.74,12.1,8.58,16.46,17.04,20.62,14.29,8.74,14.29,11.1,2.36,18.5,6.86,25.89,9.78,24,9.78,29.58,4.91,11.52-15.24,21.85-19.48,16.6-27.61,20.49-16.6,15.75-18.29,18.29-12.53,12.53-16.6,19.14-8.98,17.95-22.7,17.61-19.31-15.41-22.87-25.91-12.7-27.44-14.4-32.35-16.26-31.33-20.66-39.8-20.07-60.38-25.15-65.98c-2.49-5.29-8.22-7.49-8.71-11.87s-6.1-31.51-4.85-39.84,4.42-15.34,2.82-38.4,2.88-97.02,2.65-107.9.95-54.87-1.42-59.84-5.62-13.01-4.23-21.76,8.25-34.06,6.36-35.71-6.53-6.86-6.69-12.3,9.06-15.85,8.11-27.91-2.13-23.89-5.68-31.69S-.38,57.27.09,46.87-.32,11.64,3.71,7.03,10.19.7,13.79,1.56s13.48,2.21,13.48,2.21Z"/></g></svg>