<?xml version="1.0" encoding="UTF-8"?><svg id="Layer_2" xmlns="http://www.w3.org/2000/svg" viewBox="0 0 214.51 620.39"><defs><style>.cls-1{fill:#ccd5ae;}</style></defs><g id="map"><path class="cls-1" d="M138.78,6.69c3.76.05,19.14-1.89,19.72,4.06.58,5.95-4.23,17.66-8.07,24.13-3.84,6.46-9.23,23.8-8.5,34.56.73,10.77.34,10.71,1.59,15.88,1.25,5.17,6.39,14.15,7.66,16.62s.93,5.23,1.97,6.88,8.81,23.21,11.52,24.82,10.23,11.53,10.06,18.86c1.5,7.17,18.98,25.37,25.92,30.9,6.94,5.53,17.47,20,12.62,37.18s-10.28,32.62-12.52,37.21-5.67,11.68-7.67,13.73-2.67,9.35-.99,13.22c1.69,3.87,14.17,15.84,11.38,23.13-2.79,7.29-11.91,23.99-16,28.71-4.09,4.72-10.29,18.93-12.32,26.94-2.03,8.02-12.76,29-19.79,44.16-7.03,15.17-14,28.52-14.43,35.71s-2.25,7.14.31,12.66,3.78,18.17,10.79,24.48c7.01,6.3,11.37,12.29,10.73,14.56s-2.76,18.44-.43,26.78,2.89,25.75,1.37,31.13,1.6,12.42-20.61,16.88c-22.2,4.47-23.26,10.68-32.14,12.22-8.88,1.54-20.25,10.65-22.57,12.63s-15.47,8.66-21.18,13.91-13.52,14.84-26.63,10.78c-13.11-4.05-14.39-20.08-14.96-31.15-.57-11.07-4.77-29.86-5.06-35.05s-7.13-34.57-9.07-43.92c-1.94-9.35-2.91-63.56-6.27-70.33-.96-5.77-5.87-9.44-5.15-13.79s2.69-31.99,6.16-39.66,8.43-13.57,13.15-36.19c4.72-22.62,29.14-92.59,31.87-103.12s15.82-52.55,14.9-57.97-1.88-14.05,1.84-22.09c3.72-8.04,17.2-30.53,15.83-32.64s-4.42-8.37-3.1-13.65,13.02-12.79,15.39-24.65c2.37-11.86,4.44-23.57,3.15-32.04-1.29-8.48-1.63-12.5,1.65-22.39S110.1,6.75,115.23,3.42s7.95-4.33,11.18-2.53,12.37,5.8,12.37,5.8Z"/></g></svg>