<?xml version="1.0" encoding="UTF-8"?><svg id="Layer_2" xmlns="http://www.w3.org/2000/svg" viewBox="0 0 378.01 336.38"><defs><style>.cls-1{fill:#ccd5ae;}.cls-2{fill:#606c38;}.cls-3{fill:#8c6239;}.cls-4{fill:#9cab82;}</style></defs><g id="Layer_8"><path class="cls-4" d="M257.17,160.95c0,18.52-3.72,35.81-10.16,50.45-7.56-1.22-13.17-2.72-23.21-5.57-25.35-7.18-78.03-25.57-96.65-34.72-.22-3.29-.32-6.63-.32-10.01,0-52.8,31.15-95.45,68.42-95.45s61.92,42.49,61.92,95.3Z"/><path class="cls-1" d="M127.15,171.11c-.22-3.29-.32-6.63-.32-10.01,0-52.8,31.15-95.45,68.42-95.45-9.99,0-22.81-.11-36.64-.12,0,0,2.87-65.53-50.78-65.53s-50.87,72.73-50.87,72.73C29.63,82.12,2.87,104.7.18,151.85c-2.7,47.53,25.07,80,54.55,86.2,17.1,3.6,90.11,13.78,122.44,17.33l.58-.37c-28.48-7.46-47.95-41.52-50.6-83.9ZM122.28,65.85c-3.45.1-7.12.2-10.42.29-.67.02-1.33.04-1.96.06-.97.03-2,.07-3.08.11-9,.38-21.11,1.29-23.91,1.5-.22.02-.38.03-.48.04-.07.01-.11.01-.11.01,0,0-4.16-42.02,25.46-42.02s27.62,39.69,27.62,39.69c0,0-5.41.13-11.93.3-.4.01-.79.02-1.19.02Z"/><path class="cls-2" d="M104.16,160.1c.47.17,3.19.76,3.69.74.66-.03.97-.42.92-1.28-.27-4.41-1.45-8.45-3.61-12.09-3.14-5.28-7.46-8.78-12.39-11.33-4.65-2.41-8.09-3.53-13.17-4.54-5.5-1.09-11.93-1.47-18.18-.26-8.35,1.62-16.15,5.65-22.43,12.57-3.65,4.02-6.02,8.89-6.69,14.84-.12,1.02.2,1.64.93,1.89,1.35.47,2.72.94,4.1,1.14,3.99.57,7.99,1.03,12.01.72,2.5-.19,4.82-.07,7.61-1.2,1.84-.75,4.06-2.13,4.06-2.13,3.57-2.1,5.57-4.91,7.43-8.57l4.48-8.8c.15-.3.6-.27.71.05l.3.89c2.03,5.96,6.21,12.04,12.41,13.05l17.82,4.3Z"/><path class="cls-2" d="M36.74,163.08c-.47-.17-3.19-.76-3.69-.74-.66.03-.97.42-.92,1.28.27,4.41,1.45,8.45,3.61,12.09,3.14,5.28,7.46,8.78,12.39,11.33,4.65,2.41,8.09,3.53,13.17,4.54,5.5,1.09,11.93,1.47,18.18.26,8.35-1.62,16.15-5.65,22.43-12.57,3.65-4.02,6.02-8.89,6.69-14.84.12-1.02-.2-1.64-.93-1.89-1.35-.47-2.72-.94-4.1-1.14-3.99-.57-7.99-1.03-12.01-.72-2.5.19-4.82.07-7.61,1.2-1.84.75-4.06,2.13-4.06,2.13-3.57,2.1-5.57,4.91-7.43,8.57l-4.48,8.8c-.15.3-.6.27-.71-.05l-.3-.89c-2.03-5.96-6.21-12.04-12.41-13.05l-17.82-4.3Z"/><path class="cls-3" d="M378,303.13c.89,19.65-103.98,48.81-144.98,23.22-41.69-26.02,7.07-33.05,5.61-43.82-1.4-10.43-39.79-23.98-59.56-26.89-.02-.01-.03-.01-.05-.01-.32-.05-.63-.09-.94-.14-.69-.09-1.38-.23-2.06-.43-27.84-8.07-46.26-42.14-48.87-83.95,18.62,9.15,71.3,27.54,96.65,34.72,10.04,2.85,15.65,4.35,23.21,5.57.54.09,1.09.18,1.65.26,18.95,2.86,55.75,9.93,64.59,22.71,12.06,17.41,4.11,40.86,16.43,44.47,15.65,4.58,47.43,4.65,48.32,24.29Z"/></g></svg>